<?xml version="1.0" encoding="utf-8"?>
<!-- Generator: Adobe Illustrator 26.3.1, SVG Export Plug-In . SVG Version: 6.00 Build 0)  -->
<svg version="1.1" xmlns="http://www.w3.org/2000/svg" xmlns:xlink="http://www.w3.org/1999/xlink" x="0px" y="0px"
	 viewBox="0 0 32 32" style="enable-background:new 0 0 32 32;" xml:space="preserve">
<style type="text/css">
	.st0{fill:#D62644;}
	.st1{fill:url(#SVGID_1_);}
	.st2{fill:url(#SVGID_00000105415787495043227920000000804220686636875155_);}
	.st3{fill:url(#SVGID_00000113337825456005475200000016862864404548348803_);}
</style>
<g id="Layer_1">
	<g>
		<path class="st0" d="M9.9,12.4l0,3.5c-1,0-1.9,0-2.3,0c-1.4,0-2.8-0.2-3.8-0.6c-1-0.5-1.9-1.3-2.6-2.4C0.5,11.7,0.2,9.8,0.2,8
			c0-1,0.1-1.8,0.3-2.6h4.6C4.8,6,4.6,6.8,4.6,7.9c0,1.6-0.1,3,0.8,3.8C6.5,12.7,7.9,12.4,9.9,12.4L9.9,12.4z M1,3.9
			c0.3-0.5,0.6-1,1-1.4c1.3-1.3,3.1-1.9,5.4-1.9c0.9,0,2.5,0,4.6,0v3.4c-2.4,0-4.1,0-4.4,0c-0.1,0-0.3,0-0.4,0H1z M16.3,0.5
			c5.4,0,11.7,0,15.3,0l0,3.4h-4.1c-3.1,0-7.4,0-11.1,0V0.5z M16.4,5.4v9.1c0,0.5,0,1,0,1.5h-4.5c0.1-0.7,0-1.4,0-1.9V5.4H16.4z
			 M16.2,17.4C16.1,17.7,16,18,16,18.3c-0.3,0.9-0.9,1.6-1.8,2.2c-0.9,0.6-2,0.9-3.4,0.9c-3.6,0-5.6,0-9.1,0v-3.9c1.7,0,4.6,0,6.8,0
			H16.2z M18.3,5.4h3.9v4l4.1-4h5.2l-4.6,4l4.8,6.6H27l-2.7-4.3l-2,1.8V16h-3.9V5.4z"/>
	</g>
	<g>
		<linearGradient id="SVGID_1_" gradientUnits="userSpaceOnUse" x1="0.4813" y1="25.6059" x2="29.5296" y2="32.6818">
			<stop  offset="0" style="stop-color:#98999B"/>
			<stop  offset="5.157138e-02" style="stop-color:#8A8B8D"/>
			<stop  offset="0.1419" style="stop-color:#757678"/>
			<stop  offset="0.2392" style="stop-color:#666769"/>
			<stop  offset="0.3474" style="stop-color:#5D5E60"/>
			<stop  offset="0.4888" style="stop-color:#5A5B5D"/>
			<stop  offset="0.7082" style="stop-color:#57585A"/>
			<stop  offset="0.8764" style="stop-color:#4E4E50"/>
			<stop  offset="1" style="stop-color:#404043"/>
		</linearGradient>
		<path class="st1" d="M7.2,25.7c-0.1-0.3-0.3-1.4-1.5-1.4c-1.3,0-1.8,1.3-1.8,2.5s0.4,2.5,1.8,2.5c1,0,1.3-0.7,1.5-1.5H10
			c0,1.9-1.5,3.9-4.2,3.9c-3,0-4.7-2.1-4.7-4.9C1,24,2.9,22,5.7,22c2.6,0,4,1.3,4.2,3.7H7.2z"/>
		
			<linearGradient id="SVGID_00000130627815028382092000000014704552196231378325_" gradientUnits="userSpaceOnUse" x1="1.087" y1="23.1195" x2="30.1352" y2="30.1954">
			<stop  offset="0" style="stop-color:#98999B"/>
			<stop  offset="5.157138e-02" style="stop-color:#8A8B8D"/>
			<stop  offset="0.1419" style="stop-color:#757678"/>
			<stop  offset="0.2392" style="stop-color:#666769"/>
			<stop  offset="0.3474" style="stop-color:#5D5E60"/>
			<stop  offset="0.4888" style="stop-color:#5A5B5D"/>
			<stop  offset="0.7082" style="stop-color:#57585A"/>
			<stop  offset="0.8764" style="stop-color:#4E4E50"/>
			<stop  offset="1" style="stop-color:#404043"/>
		</linearGradient>
		<path style="fill:url(#SVGID_00000130627815028382092000000014704552196231378325_);" d="M11.2,22.3h4.1l1.3,5.5h0l1.3-5.5H22v9.3
			h-2.7v-6h0l-1.6,6h-2.1l-1.6-6h0v6h-2.7V22.3z"/>
		
			<linearGradient id="SVGID_00000044143886539682682500000005588795301217023926_" gradientUnits="userSpaceOnUse" x1="1.6722" y1="20.7168" x2="30.7205" y2="27.7926">
			<stop  offset="0" style="stop-color:#98999B"/>
			<stop  offset="5.157138e-02" style="stop-color:#8A8B8D"/>
			<stop  offset="0.1419" style="stop-color:#757678"/>
			<stop  offset="0.2392" style="stop-color:#666769"/>
			<stop  offset="0.3474" style="stop-color:#5D5E60"/>
			<stop  offset="0.4888" style="stop-color:#5A5B5D"/>
			<stop  offset="0.7082" style="stop-color:#57585A"/>
			<stop  offset="0.8764" style="stop-color:#4E4E50"/>
			<stop  offset="1" style="stop-color:#404043"/>
		</linearGradient>
		<path style="fill:url(#SVGID_00000044143886539682682500000005588795301217023926_);" d="M25.7,28.4c0,0.2,0,0.4,0.1,0.6
			c0.2,0.6,0.8,0.7,1.4,0.7c0.5,0,1.2-0.2,1.2-0.8c0-0.5-0.4-0.6-2-1.1c-1.5-0.4-3.1-0.8-3.1-2.7c0-2.1,1.8-3.1,3.7-3.1
			c2,0,3.8,0.8,3.9,3h-2.7c0.1-0.4-0.1-0.6-0.3-0.7c-0.2-0.2-0.5-0.2-0.8-0.2c-0.4,0-1,0.1-1,0.6c0,0.7,1.4,0.8,2.7,1.2
			c1.3,0.4,2.6,1,2.6,2.7c0,2.4-2.2,3.2-4.3,3.2c-1,0-4.1-0.4-4.1-3.3H25.7z"/>
	</g>
</g>
<g id="Layer_2">
</g>
</svg>
