<?xml version="1.0" encoding="utf-8"?>
<!-- Generator: Adobe Illustrator 26.3.1, SVG Export Plug-In . SVG Version: 6.00 Build 0)  -->
<svg version="1.1" id="Layer_1" xmlns="http://www.w3.org/2000/svg" xmlns:xlink="http://www.w3.org/1999/xlink" x="0px" y="0px"
	 viewBox="0 0 38.5 9.9" style="enable-background:new 0 0 38.5 9.9;" xml:space="preserve">
<style type="text/css">
	.st0{fill:#D62644;}
	.st1{fill:url(#SVGID_1_);}
	.st2{fill:url(#SVGID_00000107556204254473049600000003085838648794690723_);}
	.st3{fill:url(#SVGID_00000034801874187686383680000002513902712348609954_);}
</style>
<path class="st0" d="M4.6,5.9l0,1.6c-0.5,0-0.9,0-1,0c-0.6,0-1.3-0.1-1.7-0.3C1.3,7,1,6.6,0.6,6.1C0.3,5.6,0.2,4.7,0.2,3.9
	c0-0.4,0-0.8,0.1-1.2h2.1C2.2,3,2.2,3.3,2.2,3.8c0,0.7,0,1.4,0.4,1.7C3,6,3.7,5.9,4.6,5.9L4.6,5.9z"/>
<path class="st0" d="M0.5,2C0.7,1.8,0.8,1.6,1,1.4c0.6-0.6,1.4-0.9,2.4-0.9c0.4,0,1.1,0,2.1,0V2c-1.1,0-1.8,0-2,0c0,0-0.1,0-0.2,0
	H0.5z"/>
<path class="st0" d="M7.4,0.5c2.4,0,5.3,0,6.9,0l0,1.5h-1.9c-1.4,0-3.3,0-5,0V0.5z"/>
<path class="st0" d="M7.5,2.7v4.1c0,0.2,0,0.5,0,0.7h-2c0-0.3,0-0.6,0-0.9V2.7H7.5z"/>
<path class="st0" d="M7.4,8.1c0,0.1-0.1,0.3-0.1,0.4c-0.1,0.4-0.4,0.7-0.8,1C6.1,9.8,5.5,9.9,4.9,9.9c-1.6,0-2.5,0-4.1,0V8.1
	c0.8,0,2.1,0,3.1,0H7.4z"/>
<polygon class="st0" points="8.3,2.7 10.1,2.7 10.1,4.5 12,2.7 14.3,2.7 12.2,4.5 14.4,7.5 12.2,7.5 11,5.5 10.1,6.3 10.1,7.5 
	8.3,7.5 "/>
<linearGradient id="SVGID_1_" gradientUnits="userSpaceOnUse" x1="14.9157" y1="3.0502" x2="37.0527" y2="8.4425">
	<stop  offset="0" style="stop-color:#98999B"/>
	<stop  offset="5.157138e-02" style="stop-color:#8A8B8D"/>
	<stop  offset="0.1419" style="stop-color:#757678"/>
	<stop  offset="0.2392" style="stop-color:#666769"/>
	<stop  offset="0.3474" style="stop-color:#5D5E60"/>
	<stop  offset="0.4888" style="stop-color:#5A5B5D"/>
	<stop  offset="0.7082" style="stop-color:#57585A"/>
	<stop  offset="0.8764" style="stop-color:#4E4E50"/>
	<stop  offset="1" style="stop-color:#404043"/>
</linearGradient>
<path class="st1" d="M20,3.1c0-0.3-0.2-1-1.1-1c-1,0-1.3,1-1.3,1.9S17.8,6,18.9,6c0.7,0,1-0.5,1.1-1.2h2.1c0,1.4-1.2,2.9-3.2,2.9
	c-2.3,0-3.6-1.6-3.6-3.7c0-2.2,1.4-3.7,3.6-3.7c2,0,3,1,3.2,2.8H20z"/>
<linearGradient id="SVGID_00000094576832104398040410000016456047495756710063_" gradientUnits="userSpaceOnUse" x1="15.3772" y1="1.1554" x2="37.5143" y2="6.5477">
	<stop  offset="0" style="stop-color:#98999B"/>
	<stop  offset="5.157138e-02" style="stop-color:#8A8B8D"/>
	<stop  offset="0.1419" style="stop-color:#757678"/>
	<stop  offset="0.2392" style="stop-color:#666769"/>
	<stop  offset="0.3474" style="stop-color:#5D5E60"/>
	<stop  offset="0.4888" style="stop-color:#5A5B5D"/>
	<stop  offset="0.7082" style="stop-color:#57585A"/>
	<stop  offset="0.8764" style="stop-color:#4E4E50"/>
	<stop  offset="1" style="stop-color:#404043"/>
</linearGradient>
<path style="fill:url(#SVGID_00000094576832104398040410000016456047495756710063_);" d="M23.1,0.5h3.1l1,4.2h0l1-4.2h3.1v7.1h-2.1
	V3h0L28,7.6h-1.6L25.1,3h0v4.5h-2.1V0.5z"/>
<linearGradient id="SVGID_00000088099076914307299010000000325755413651800742_" gradientUnits="userSpaceOnUse" x1="15.8233" y1="-0.6757" x2="37.9603" y2="4.7166">
	<stop  offset="0" style="stop-color:#98999B"/>
	<stop  offset="5.157138e-02" style="stop-color:#8A8B8D"/>
	<stop  offset="0.1419" style="stop-color:#757678"/>
	<stop  offset="0.2392" style="stop-color:#666769"/>
	<stop  offset="0.3474" style="stop-color:#5D5E60"/>
	<stop  offset="0.4888" style="stop-color:#5A5B5D"/>
	<stop  offset="0.7082" style="stop-color:#57585A"/>
	<stop  offset="0.8764" style="stop-color:#4E4E50"/>
	<stop  offset="1" style="stop-color:#404043"/>
</linearGradient>
<path style="fill:url(#SVGID_00000088099076914307299010000000325755413651800742_);" d="M34.2,5.2c0,0.2,0,0.3,0.1,0.5
	c0.2,0.4,0.6,0.5,1,0.5c0.4,0,0.9-0.1,0.9-0.6c0-0.4-0.3-0.5-1.5-0.8c-1.1-0.3-2.4-0.6-2.4-2.1c0-1.6,1.4-2.3,2.9-2.3
	c1.5,0,2.9,0.6,3,2.3H36c0-0.3-0.1-0.4-0.3-0.6c-0.2-0.1-0.4-0.2-0.6-0.2c-0.3,0-0.8,0.1-0.8,0.5c0,0.5,1.1,0.6,2.1,0.9
	c1,0.3,2,0.7,2,2c0,1.8-1.7,2.4-3.3,2.4c-0.8,0-3.1-0.3-3.1-2.5H34.2z"/>
</svg>
